<?xml version="1.0" encoding="UTF-8" standalone="no"?>
<svg
  xmlns:dc="http://purl.org/dc/elements/1.1/"
  xmlns:cc="http://creativecommons.org/ns#"
  xmlns:rdf="http://www.w3.org/1999/02/22-rdf-syntax-ns#"
  xmlns="http://www.w3.org/2000/svg"
  xmlns:sodipodi="http://sodipodi.sourceforge.net/DTD/sodipodi-0.dtd"
  xmlns:inkscape="http://www.inkscape.org/namespaces/inkscape"
  height="512"
  viewBox="0 0 192 192"
  width="512"
  version="1.1"
  id="svg7"
  sodipodi:docname="parking.svg"
  inkscape:version="0.92.4 (5da689c313, 2019-01-14)">
  <metadata
     id="metadata13">
    <rdf:RDF>
      <cc:Work
         rdf:about="">
        <dc:format>image/svg+xml</dc:format>
        <dc:type
           rdf:resource="http://purl.org/dc/dcmitype/StillImage" />
      </cc:Work>
    </rdf:RDF>
  </metadata>
  <defs
     id="defs11" />
  <sodipodi:namedview
     pagecolor="#ffffff"
     bordercolor="#666666"
     borderopacity="1"
     objecttolerance="10"
     gridtolerance="10"
     guidetolerance="10"
     inkscape:pageopacity="0"
     inkscape:pageshadow="2"
     inkscape:window-width="1920"
     inkscape:window-height="1017"
     id="namedview9"
     showgrid="false"
     inkscape:zoom="0.4609375"
     inkscape:cx="256"
     inkscape:cy="256"
     inkscape:window-x="1072"
     inkscape:window-y="642"
     inkscape:window-maximized="1"
     inkscape:current-layer="svg7" />
  <g
     id="_11-park"
     data-name="11-park">
    <path
       d="m96 0a96 96 0 1 0 96 96 96.108 96.108 0 0 0 -96-96zm0 176a80 80 0 1 1 80-80 80.091 80.091 0 0 1 -80 80z"
       id="path2" />
    <path
       d="m108 56h-28a8 8 0 0 0 -8 8v80h16v-32h20a28 28 0 0 0 0-56zm0 40h-20v-24h20a12 12 0 0 1 0 24z"
       id="path4" />
  </g>
  <path
     style="fill:#0000ff;stroke-width:2.16949153"
     d="M 232.88498,509.67285 C 93.874337,496.97807 -9.8024743,373.31356 2.2487717,234.57263 12.965942,111.19033 112.4636,11.474717 233.91039,2.4035387 310.71701,-3.3333494 382.52004,22.910373 435.80483,76.195172 489.27462,129.66496 515.72293,202.31825 509.42366,278.42543 497.86644,418.05859 373.00651,522.46905 232.88498,509.67285 Z m 75.43973,-46.22201 c 38.61981,-9.79673 70.0536,-27.76303 98.70835,-56.41778 28.53653,-28.53654 46.29528,-59.53575 56.68063,-98.94036 7.5039,-28.4716 7.92034,-72.2612 0.95564,-100.4875 C 448.39383,141.6444 404.23151,87.959856 343.64882,60.490355 315.35002,47.65906 291.33449,42.816466 256,42.816466 c -26.68336,0 -34.58937,0.827774 -52.0927,5.454182 C 164.4597,58.697279 133.48973,76.44416 104.96695,104.96695 76.44416,133.48973 58.697279,164.4597 48.270648,203.9073 43.64424,221.41063 42.816466,229.31664 42.816466,256 c 0,26.68336 0.827774,34.58937 5.454182,52.0927 22.668735,85.76376 90.315262,146.52214 178.625082,160.43646 20.18985,3.18117 58.21841,0.80952 81.42898,-5.07832 z"
     id="path3718"
     inkscape:connector-curvature="0"
     transform="scale(0.375)" />
  <path
     style="fill:#000080;stroke-width:2.16949153"
     d="M 220.38725,507.57975 C 119.98999,491.76303 40.165484,421.81816 12.224685,325.18081 -13.466355,236.32458 11.906238,141.42718 79.194322,74.704108 165.90902,-11.28246 301.91393,-21.584918 403.52542,50.135821 c 50.75051,35.821368 87.50644,92.537819 101.07605,155.965869 4.74158,22.16347 5.34589,73.9189 1.1146,95.45763 -7.00184,35.64175 -23.04549,73.59052 -43.04707,101.82114 -13.59243,19.18462 -43.87266,48.83731 -62.61915,61.32141 -28.31806,18.85824 -57.2826,31.37378 -91.98205,39.74533 -16.92701,4.08378 -69.67941,5.96846 -87.68055,3.13255 z m 68.15512,-39.97054 c 57.63003,-8.79369 108.5931,-40.40411 143.541,-89.03294 37.51318,-52.19833 48.62562,-127.27986 27.90899,-188.56779 C 439.20328,128.50621 392.30325,78.683344 333.30998,55.431133 308.56112,45.676366 290.58024,42.750362 254.91525,42.674061 216.43882,42.591746 197.69109,46.618142 165.24255,61.932807 119.75841,83.399851 83.412539,119.73239 61.966915,165.17055 c -15.652399,33.1637 -19.409655,51.05632 -19.30097,91.9142 0.08296,31.18407 0.683136,36.69625 5.905555,54.23728 11.862856,39.84491 29.880373,70.51553 57.09318,97.18784 18.20452,17.84297 30.36204,26.67186 52.32183,37.99657 42.46049,21.89696 82.7122,28.40317 130.55586,21.10277 z"
     id="path3720"
     inkscape:connector-curvature="0"
     transform="scale(0.375)" />
  <path
     style="fill:#000080;stroke-width:2.16949153"
     d="m 193.08475,275.41769 c 0,-119.03553 -0.0947,-118.12225 12.80422,-123.46517 4.69635,-1.94529 19.33923,-2.48166 52.76252,-1.9327 l 46.26217,0.75984 14.36055,7.07186 c 26.14968,12.87741 41.35054,36.32448 41.71596,64.34614 0.29242,22.42308 -5.28748,36.0664 -21.44417,52.43287 -19.30864,19.55934 -28.92669,22.58981 -71.69518,22.58981 H 234.30508 V 340.61017 384 h -20.61016 -20.61017 z m 112.15331,-23.66121 c 14.85939,-9.06035 19.50736,-25.87545 11.64297,-42.12113 -7.55886,-15.61451 -16.33275,-18.7201 -52.88802,-18.7201 H 234.30508 V 223.45763 256 l 32,-0.008 c 27.89091,-0.007 32.89026,-0.55093 38.93298,-4.23541 z"
     id="path3722"
     inkscape:connector-curvature="0"
     transform="scale(0.375)" />
</svg>
