<?xml version="1.0" encoding="UTF-8" standalone="no"?>
<!-- Generator: Adobe Illustrator 19.0.0, SVG Export Plug-In . SVG Version: 6.00 Build 0)  -->

<svg
  xmlns:dc="http://purl.org/dc/elements/1.1/"
  xmlns:cc="http://creativecommons.org/ns#"
  xmlns:rdf="http://www.w3.org/1999/02/22-rdf-syntax-ns#"
  xmlns="http://www.w3.org/2000/svg"
  xmlns:sodipodi="http://sodipodi.sourceforge.net/DTD/sodipodi-0.dtd"
  xmlns:inkscape="http://www.inkscape.org/namespaces/inkscape"
  version="1.1"
  id="Capa_1"
  x="0px"
  y="0px"
  viewBox="0 0 512 512"
  style="enable-background:new 0 0 512 512;"
  xml:space="preserve"
  sodipodi:docname="placeholder.svg"
  inkscape:version="0.92.4 (5da689c313, 2019-01-14)"><metadata
   id="metadata49"><rdf:RDF><cc:Work
       rdf:about=""><dc:format>image/svg+xml</dc:format><dc:type
         rdf:resource="http://purl.org/dc/dcmitype/StillImage" /></cc:Work></rdf:RDF></metadata><defs
   id="defs47" /><sodipodi:namedview
   pagecolor="#ffffff"
   bordercolor="#666666"
   borderopacity="1"
   objecttolerance="10"
   gridtolerance="10"
   guidetolerance="10"
   inkscape:pageopacity="0"
   inkscape:pageshadow="2"
   inkscape:window-width="1920"
   inkscape:window-height="1017"
   id="namedview45"
   showgrid="false"
   inkscape:zoom="0.4609375"
   inkscape:cx="256"
   inkscape:cy="256"
   inkscape:window-x="1072"
   inkscape:window-y="642"
   inkscape:window-maximized="1"
   inkscape:current-layer="Capa_1" />
<g
   id="g6">
	<g
   id="g4">
		<path
   d="M256,0C156.748,0,76,80.748,76,180c0,33.534,9.289,66.26,26.869,94.652l142.885,230.257    c2.737,4.411,7.559,7.091,12.745,7.091c0.04,0,0.079,0,0.119,0c5.231-0.041,10.063-2.804,12.75-7.292L410.611,272.22    C427.221,244.428,436,212.539,436,180C436,80.748,355.252,0,256,0z M384.866,256.818L258.272,468.186l-129.905-209.34    C113.734,235.214,105.8,207.95,105.8,180c0-82.71,67.49-150.2,150.2-150.2S406.1,97.29,406.1,180    C406.1,207.121,398.689,233.688,384.866,256.818z"
   id="path2" />
	</g>
</g>
<g
   id="g12">
	<g
   id="g10">
		<path
   d="M256,90c-49.626,0-90,40.374-90,90c0,49.309,39.717,90,90,90c50.903,0,90-41.233,90-90C346,130.374,305.626,90,256,90z     M256,240.2c-33.257,0-60.2-27.033-60.2-60.2c0-33.084,27.116-60.2,60.2-60.2s60.1,27.116,60.1,60.2    C316.1,212.683,289.784,240.2,256,240.2z"
   id="path8" />
	</g>
</g>
<g
   id="g14">
</g>
<g
   id="g16">
</g>
<g
   id="g18">
</g>
<g
   id="g20">
</g>
<g
   id="g22">
</g>
<g
   id="g24">
</g>
<g
   id="g26">
</g>
<g
   id="g28">
</g>
<g
   id="g30">
</g>
<g
   id="g32">
</g>
<g
   id="g34">
</g>
<g
   id="g36">
</g>
<g
   id="g38">
</g>
<g
   id="g40">
</g>
<g
   id="g42">
</g>
<path
   style="fill:#ffffff;stroke-width:2.16949153"
   d="M 248.9046,506.04162 C 242.16349,498.59278 101.35944,270.21058 94.078125,254.91525 72.178504,208.9123 72.261596,151.19635 94.294398,104.69069 124.74432,40.418614 185.24476,1.9967709 256,1.9967709 c 83.03972,0 152.87995,54.5644201 173.52483,135.5706091 5.99315,23.5159 6.01804,61.30366 0.056,85.00084 -6.33617,25.18409 -16.71387,44.33189 -92.78356,171.19449 l -68.94646,114.98305 -7.6634,0.64762 c -5.30144,0.448 -8.77893,-0.58505 -11.28278,-3.35176 z M 326.14092,357.09117 C 369.63365,284.51057 394.75877,240.38574 398.09894,230.71829 429.79493,138.98043 370.82416,43.076224 274.86745,30.306764 205.41096,21.06383 136.81292,63.437744 113.71635,129.85192 c -7.71625,22.18808 -10.50524,46.50709 -7.71301,67.25493 3.89976,28.97745 10.1901,43.65308 38.17775,89.07023 69.48257,112.75336 113.0073,182.38432 114.0188,182.40751 0.61332,0.013 31.18679,-50.15797 67.94103,-111.49342 z"
   id="path51"
   inkscape:connector-curvature="0" /><path
   style="fill:#ffffff;stroke-width:2.16949153"
   d="m 234.30508,266.06637 c -44.64676,-12.15431 -73.29273,-55.89111 -65.68724,-100.29161 1.34656,-7.86118 5.12502,-19.58351 8.39658,-26.04963 7.13688,-14.10579 26.27573,-32.87743 40.4806,-39.70392 23.20951,-11.153879 53.80045,-11.153879 77.00996,0 14.20487,6.82649 33.34372,25.59813 40.4806,39.70392 25.33522,50.07419 -2.38016,111.9266 -56.46551,126.01405 -14.89777,3.88037 -30.73255,3.99755 -44.21499,0.32719 z m 48.91108,-31.23546 c 12.71133,-6.51696 25.78251,-21.71096 30.25077,-35.16365 4.57314,-13.76842 3.62763,-34.37372 -2.09845,-45.73139 -5.19629,-10.30684 -17.84517,-23.20453 -28.24984,-28.80553 -12.43156,-6.69212 -41.80572,-6.69212 -54.23728,0 -10.29036,5.53947 -22.89148,18.32442 -28.48797,28.90356 -5.65586,10.69138 -5.65586,41.37641 0,52.06779 7.89438,14.92288 22.87097,27.77543 38.23663,32.81374 9.57197,3.1386 35.04997,0.80457 44.58614,-4.08452 z"
   id="path53"
   inkscape:connector-curvature="0" /></svg>
