<?xml version="1.0" encoding="UTF-8" standalone="no"?>
<!-- Generator: Adobe Illustrator 19.0.0, SVG Export Plug-In . SVG Version: 6.00 Build 0)  -->

<svg
  xmlns:dc="http://purl.org/dc/elements/1.1/"
  xmlns:cc="http://creativecommons.org/ns#"
  xmlns:rdf="http://www.w3.org/1999/02/22-rdf-syntax-ns#"
  xmlns="http://www.w3.org/2000/svg"
  xmlns:sodipodi="http://sodipodi.sourceforge.net/DTD/sodipodi-0.dtd"
  xmlns:inkscape="http://www.inkscape.org/namespaces/inkscape"
  version="1.1"
  id="Capa_1"
  x="0px"
  y="0px"
  viewBox="0 0 469.333 469.333"
  style="enable-background:new 0 0 469.333 469.333;"
  xml:space="preserve"
  sodipodi:docname="truck.svg"
  inkscape:version="0.92.4 (5da689c313, 2019-01-14)"><metadata
   id="metadata43"><rdf:RDF><cc:Work
       rdf:about=""><dc:format>image/svg+xml</dc:format><dc:type
         rdf:resource="http://purl.org/dc/dcmitype/StillImage" /></cc:Work></rdf:RDF></metadata><defs
   id="defs41" /><sodipodi:namedview
   pagecolor="#ffffff"
   bordercolor="#666666"
   borderopacity="1"
   objecttolerance="10"
   gridtolerance="10"
   guidetolerance="10"
   inkscape:pageopacity="0"
   inkscape:pageshadow="2"
   inkscape:window-width="1920"
   inkscape:window-height="1017"
   id="namedview39"
   showgrid="false"
   inkscape:zoom="0.50284126"
   inkscape:cx="234.6665"
   inkscape:cy="234.6665"
   inkscape:window-x="1072"
   inkscape:window-y="642"
   inkscape:window-maximized="1"
   inkscape:current-layer="Capa_1" />
<g
   id="g6">
	<g
   id="g4">
		<path
   d="M405.333,149.333h-64V64H42.667C19.093,64,0,83.093,0,106.667v234.667h42.667c0,35.307,28.693,64,64,64s64-28.693,64-64    h128c0,35.307,28.693,64,64,64c35.307,0,64-28.693,64-64h42.667V234.667L405.333,149.333z M106.667,373.333    c-17.707,0-32-14.293-32-32s14.293-32,32-32s32,14.293,32,32S124.373,373.333,106.667,373.333z M362.667,373.333    c-17.707,0-32-14.293-32-32s14.293-32,32-32s32,14.293,32,32S380.373,373.333,362.667,373.333z M341.333,234.667v-53.333h53.333    l41.92,53.333H341.333z"
   id="path2" />
	</g>
</g>
<g
   id="g8">
</g>
<g
   id="g10">
</g>
<g
   id="g12">
</g>
<g
   id="g14">
</g>
<g
   id="g16">
</g>
<g
   id="g18">
</g>
<g
   id="g20">
</g>
<g
   id="g22">
</g>
<g
   id="g24">
</g>
<g
   id="g26">
</g>
<g
   id="g28">
</g>
<g
   id="g30">
</g>
<g
   id="g32">
</g>
<g
   id="g34">
</g>
<g
   id="g36">
</g>
<path
   style="fill:#999999;stroke-width:1.9886992"
   d="M 80.542317,398.13905 C 73.935319,394.94649 64.957932,388.39546 60.426643,383.4601 51.828532,374.09528 43.751382,355.93054 43.751382,345.95906 v -5.8915 H 21.789871 -0.17164264 L 0.41135348,218.25974 C 0.98734162,97.91611 1.0458102,96.35629 5.2753865,88.497114 10.648853,78.512424 16.887117,72.643645 26.313531,68.705038 32.746195,66.017299 53.097099,65.627073 186.8343,65.627073 h 153.15415 l 0.53673,42.259857 0.53673,42.25986 32.10699,0.54543 32.10697,0.54544 32.02858,42.68666 32.02856,42.68667 v 51.72828 51.72829 h -21.87569 -21.87569 v 5.8915 c 0,9.82123 -7.60439,26.95831 -16.39281,36.9425 -16.53055,18.7797 -43.82928,25.76954 -68.26982,17.48048 -20.28988,-6.88133 -40.62542,-33.76566 -40.62542,-53.7083 v -6.60618 h -65.37405 -65.37406 l -0.92708,9.64833 c -1.22526,12.7515 -7.72459,25.73721 -17.94723,35.85866 -12.52261,12.39866 -23.46845,16.98369 -42.28705,17.71336 -14.19026,0.55019 -17.1991,-0.006 -27.841793,-5.14886 z m 44.208153,-29.52868 c 10.36534,-7.73885 13.46412,-13.9983 13.46412,-27.19712 0,-14.92407 -5.31997,-23.7525 -17.70155,-29.37555 -10.87144,-4.9372 -18.68273,-4.72521 -29.11238,0.79013 -9.781458,5.17255 -17.847185,17.90054 -17.775114,28.04969 0.09027,12.71292 9.722305,26.68534 21.832015,31.67001 5.973429,2.45881 23.965109,0.0406 29.292909,-3.93716 z m 256.99657,-0.64178 c 7.36423,-5.24378 13.89528,-17.91772 13.96043,-27.09107 0.072,-10.14915 -7.99366,-22.87714 -17.77512,-28.04969 -10.89359,-5.76068 -18.74677,-5.78825 -29.86936,-0.1048 -10.43974,5.33444 -15.63066,11.90224 -17.23866,21.81119 -2.54518,15.6841 4.83711,30.63908 18.09378,36.65422 8.81829,4.00124 24.90348,2.42364 32.82893,-3.21977 z m 49.50783,-141.75406 c -3.62624,-4.64858 -13.13773,-16.72993 -21.13663,-26.84744 l -14.54348,-18.39546 h -27.75359 -27.75361 v 26.84743 26.84744 h 48.89024 48.89024 z"
   id="path3748"
   inkscape:connector-curvature="0" /></svg>
